<svg xmlns="http://www.w3.org/2000/svg" viewBox="0 0 420 520"><defs><filter id="paper"><feTurbulence type="fractalNoise" baseFrequency=".018" numOctaves="2" seed="8" result="n"/><feDisplacementMap in="SourceGraphic" in2="n" scale="2"/></filter><linearGradient id="coat" x1="0" y1="0" x2="1" y2="1"><stop stop-color="#9eb47e"/><stop offset="1" stop-color="#60795a"/></linearGradient><linearGradient id="hair" x1="0" y1="0" x2="1" y2="1"><stop stop-color="#f1cf62"/><stop offset="1" stop-color="#c99332"/></linearGradient></defs><g filter="url(#paper)"><path d="M227 208 C285 180 347 185 413 220 C350 218 306 235 265 255 C315 246 357 255 414 290 C349 274 290 273 233 277Z" fill="#e3b347" opacity=".9"/><ellipse cx="205" cy="162" rx="64" ry="70" fill="#edc19f" stroke="#c98e6a" stroke-width="3"/><path d="M146 137 C124 111 131 86 153 89 C145 65 167 63 178 79 C186 53 210 57 213 78 C229 56 249 69 242 90 C271 82 278 109 258 123 C270 138 251 149 232 145 C210 131 178 128 146 137Z" fill="url(#hair)" stroke="#bd8e32" stroke-width="3"/><ellipse cx="167" cy="162" rx="5" ry="8" fill="#314052"/><path d="M149 181 q-8 7 2 11" fill="none" stroke="#b37d62" stroke-width="3"/><path d="M177 229 C139 250 126 306 135 371 C178 407 246 403 286 370 C301 314 289 258 252 231Z" fill="url(#coat)" stroke="#556f56" stroke-width="3"/><path d="M172 359 C139 364 106 384 95 413 C138 433 210 430 260 400 C235 370 211 359 172 359Z" fill="#708b65" stroke="#556f56" stroke-width="3"/><path d="M97 407 C75 411 58 425 55 442 C76 450 101 445 116 432Z" fill="#765137"/><path d="M245 264 C272 291 278 323 267 355" fill="none" stroke="#d7a985" stroke-width="18" stroke-linecap="round"/><path d="M180 222 C214 211 251 214 282 230" fill="none" stroke="#d7a633" stroke-width="16" stroke-linecap="round"/></g></svg>